<?xml version="1.0" standalone="no"?>
<!DOCTYPE svg PUBLIC "-//W3C//DTD SVG 20010904//EN"
 "http://www.w3.org/TR/2001/REC-SVG-20010904/DTD/svg10.dtd">
<svg version="1.0" xmlns="http://www.w3.org/2000/svg"
 width="384.000000pt" height="131.000000pt" viewBox="0 0 384.000000 131.000000"
 preserveAspectRatio="xMidYMid meet">

<g transform="translate(0.000000,131.000000) scale(0.100000,-0.100000)"
fill="#000000" stroke="none">
<path d="M0 655 l0 -655 1920 0 1920 0 0 655 0 655 -1920 0 -1920 0 0 -655z
m557 258 c28 -13 82 -79 72 -87 -2 -1 -24 -17 -49 -33 l-46 -31 -21 24 c-24
27 -50 31 -78 11 -25 -19 -14 -31 52 -62 115 -52 153 -98 153 -184 0 -42 -5
-56 -32 -87 -18 -20 -47 -43 -65 -50 -46 -20 -140 -17 -188 5 -37 16 -95 72
-95 89 0 4 24 23 52 42 35 24 53 31 56 22 9 -29 86 -51 126 -36 40 15 7 51
-92 104 -76 40 -112 84 -112 139 0 121 141 191 267 134z m859 -114 c35 -73 84
-179 110 -234 26 -55 53 -112 61 -127 l14 -28 -73 0 c-72 0 -73 1 -88 33 -12
26 -20 32 -45 31 -16 -1 -56 -2 -88 -3 -55 -1 -59 -3 -68 -31 -11 -29 -12 -30
-81 -30 -81 0 -80 -5 -21 120 104 219 147 310 169 358 13 30 29 52 35 50 7 -2
41 -65 75 -139z m-616 31 l0 -100 70 0 69 0 3 98 3 97 63 3 62 3 0 -261 0
-260 -66 0 -66 0 4 95 3 95 -72 0 -73 0 0 -95 0 -95 -65 0 -65 0 0 253 c0 140
3 257 7 260 3 4 33 7 65 7 l58 0 0 -100z m1060 81 c99 -52 133 -165 76 -251
-14 -22 -31 -40 -36 -40 -20 0 -8 -25 55 -111 36 -48 65 -91 65 -94 0 -3 -35
-5 -77 -5 l-78 0 -60 91 -60 91 -3 -91 -3 -91 -64 0 -65 0 0 261 0 262 113 -5
c64 -2 123 -10 137 -17z m300 -176 l0 -195 93 0 c52 0 96 -2 98 -4 2 -2 2 -32
1 -65 l-4 -61 -159 0 -159 0 0 260 0 260 65 0 65 0 0 -195z m540 130 l0 -65
-95 0 -95 0 0 -32 0 -33 82 0 83 0 3 -61 c3 -72 2 -73 -103 -71 l-65 2 0 -32
0 -33 95 0 95 0 0 -65 0 -65 -160 0 -160 0 0 260 0 260 160 0 160 0 0 -65z
m370 0 l0 -64 -97 -3 -98 -3 0 -30 0 -30 83 4 83 3 -3 -69 c-3 -65 -4 -68 -28
-69 -14 0 -51 -1 -82 -2 -57 -2 -58 -2 -58 -32 l0 -30 100 0 100 0 0 -65 0
-65 -165 0 -165 0 0 253 c0 140 3 257 7 260 3 4 78 7 165 7 l158 0 0 -65z
m200 -60 l125 -125 5 122 5 123 63 3 62 3 0 -266 c0 -184 -3 -265 -11 -265 -6
0 -70 56 -142 125 l-132 125 -3 -120 -3 -120 -64 0 -65 0 0 260 c0 242 1 260
18 260 9 0 73 -56 142 -125z m343 -765 c-7 -28 -13 -25 -13 6 0 14 4 23 9 20
5 -3 7 -15 4 -26z m22 11 c-3 -5 -1 -12 5 -16 5 -3 10 0 10 7 0 9 3 9 10 -2 8
-13 10 -12 10 3 0 10 8 17 20 17 13 0 20 -7 20 -20 0 -11 -5 -20 -11 -20 -5 0
-8 4 -4 9 3 5 1 12 -5 16 -5 3 -10 -1 -10 -9 0 -11 -9 -16 -30 -16 -28 0 -40
17 -23 33 9 10 15 8 8 -2z m92 -23 c-3 -7 -5 -2 -5 12 0 14 2 19 5 13 2 -7 2
-19 0 -25z m90 10 c-2 -23 -77 -26 -77 -4 0 15 16 21 56 21 15 0 22 -6 21 -17z"/>
<path d="M382 903 c-18 -9 -39 -28 -47 -43 l-14 -28 139 2 c77 0 140 5 140 9
0 63 -136 101 -218 60z"/>
<path d="M450 659 l-25 -11 35 -18 c19 -10 43 -27 53 -38 58 -63 -63 -110
-135 -52 -25 19 -25 19 -56 -3 -40 -28 -40 -40 1 -71 43 -32 108 -49 163 -40
119 18 179 134 112 219 -16 21 -28 25 -71 24 -29 0 -63 -5 -77 -10z"/>
<path d="M1324 883 c-12 -42 -11 -46 13 -49 30 -5 37 11 23 47 -15 36 -26 37
-36 2z"/>
<path d="M1225 669 c-25 -48 -105 -229 -105 -236 0 -2 20 -3 45 -3 39 0 46 3
60 30 l16 30 100 0 100 0 17 -30 c15 -26 22 -30 64 -30 l47 0 -54 117 -53 118
-56 16 c-31 9 -56 15 -56 13 0 -2 11 -29 25 -60 14 -31 25 -58 25 -60 0 -2
-27 -4 -60 -4 -33 0 -60 1 -60 3 0 2 13 30 29 63 26 53 28 60 13 72 -9 6 -28
12 -44 12 -23 0 -32 -8 -53 -51z"/>
<path d="M1325 630 c-19 -37 -19 -40 5 -40 11 0 20 5 20 11 0 5 4 8 10 4 5 -3
5 7 -1 25 -6 16 -13 30 -15 30 -2 0 -10 -13 -19 -30z"/>
<path d="M690 872 l0 -38 45 0 45 1 0 38 0 37 -45 0 -45 0 0 -38z"/>
<path d="M960 883 c0 -40 11 -50 47 -47 44 3 53 11 53 45 0 28 -1 29 -50 29
-48 0 -50 -1 -50 -27z"/>
<path d="M783 673 l-93 -15 0 -114 0 -114 45 0 45 0 0 95 0 95 90 0 90 0 0
-95 0 -95 49 0 49 0 -1 106 c-2 104 -3 107 -30 127 -36 27 -122 31 -244 10z"/>
<path d="M1630 874 l0 -39 144 0 c130 0 142 2 133 16 -24 38 -69 53 -174 57
l-103 4 0 -38z"/>
<path d="M1740 755 l0 -46 37 3 c31 2 39 8 47 31 12 34 3 44 -47 52 l-37 6 0
-46z"/>
<path d="M1875 718 c-90 -30 -166 -47 -207 -48 l-38 0 0 -120 0 -120 45 0 44
0 3 111 3 111 69 -98 c37 -54 70 -104 73 -111 3 -9 25 -13 64 -13 l59 0 -65
91 -64 91 31 26 c25 22 58 76 58 97 0 7 -7 6 -75 -17z"/>
<path d="M2050 873 l0 -38 45 0 45 0 0 38 0 37 -45 0 -45 0 0 -37z"/>
<path d="M2050 595 l0 -165 139 0 139 0 6 35 c4 20 4 40 1 45 -3 6 -49 10
-101 10 l-94 0 0 114 c0 124 -1 126 -61 126 l-29 0 0 -165z"/>
<path d="M2400 873 l0 -38 137 0 c147 0 151 1 152 53 1 22 0 22 -144 22 l-145
0 0 -37z"/>
<path d="M2477 624 l-77 -46 0 -74 0 -74 139 0 139 0 4 45 3 45 -97 0 -98 0 0
50 0 50 85 0 c84 0 85 0 85 25 0 24 -3 25 -53 25 -45 0 -64 -7 -130 -46z"/>
<path d="M2760 875 c0 -19 3 -35 8 -35 4 0 69 -2 145 -3 l137 -2 0 38 0 37
-145 0 -145 0 0 -35z"/>
<path d="M2945 685 c-5 -2 -49 -9 -97 -15 l-88 -12 0 -114 0 -114 145 0 145 0
0 45 0 45 -95 0 -95 0 0 50 0 50 80 0 80 0 0 35 c0 33 -2 35 -32 34 -18 0 -37
-2 -43 -4z"/>
<path d="M3130 872 c0 -37 0 -38 40 -38 l41 -1 -38 39 c-20 21 -38 38 -40 38
-2 0 -3 -17 -3 -38z"/>
<path d="M3422 874 c3 -36 4 -37 45 -38 38 -2 42 1 47 27 9 46 9 47 -45 47
l-50 0 3 -36z"/>
<path d="M3292 700 c-24 -11 -42 -24 -40 -29 4 -11 251 -242 254 -238 2 2 6
55 10 120 7 130 11 121 -68 141 -26 6 -28 4 -28 -26 l0 -32 -42 41 -43 42 -43
-19z"/>
<path d="M3200 650 c-8 -5 -27 -10 -42 -10 l-28 0 0 -105 0 -105 45 0 45 0 0
115 c0 63 -1 115 -2 115 -2 0 -10 -5 -18 -10z"/>
</g>
</svg>
